<?xml version="1.0" encoding="UTF-8" standalone="no"?>
<!-- Created with Inkscape (http://www.inkscape.org/) -->

<svg
   xmlns:dc="http://purl.org/dc/elements/1.1/"
   xmlns:cc="http://creativecommons.org/ns#"
   xmlns:rdf="http://www.w3.org/1999/02/22-rdf-syntax-ns#"
   xmlns:svg="http://www.w3.org/2000/svg"
   xmlns="http://www.w3.org/2000/svg"
   xmlns:xlink="http://www.w3.org/1999/xlink"
   xmlns:sodipodi="http://sodipodi.sourceforge.net/DTD/sodipodi-0.dtd"
   xmlns:inkscape="http://www.inkscape.org/namespaces/inkscape"
   width="150.58789mm"
   height="150.58789mm"
   viewBox="0 0 150.58789 150.58789"
   version="1.1"
   id="svg2630"
   inkscape:version="0.92.4 (5da689c313, 2019-01-14)"
   sodipodi:docname="Serene-icon.svg">
  <defs
     id="defs2624">
    <linearGradient
       inkscape:collect="always"
       id="linearGradient1573">
      <stop
         style="stop-color:#000000;stop-opacity:1;"
         offset="0"
         id="stop1569" />
      <stop
         style="stop-color:#000000;stop-opacity:0;"
         offset="1"
         id="stop1571" />
    </linearGradient>
    <clipPath
       id="clipPath4014"
       clipPathUnits="userSpaceOnUse">
      <circle
         style="opacity:1;fill:#ffffff;fill-opacity:1;stroke:none;stroke-width:1.29999995;stroke-linecap:butt;stroke-linejoin:bevel;stroke-miterlimit:4;stroke-dasharray:none;stroke-opacity:0.87234042"
         id="circle4016"
         cx="94.063423"
         cy="187.42929"
         r="65.293945" />
    </clipPath>
    <clipPath
       clipPathUnits="userSpaceOnUse"
       id="clipPath4180">
      <circle
         style="opacity:1;fill:#ffffff;fill-opacity:1;stroke:none;stroke-width:1.29999995;stroke-linecap:butt;stroke-linejoin:bevel;stroke-miterlimit:4;stroke-dasharray:none;stroke-opacity:0.87234042"
         id="circle4182"
         cx="94.063423"
         cy="187.42929"
         r="65.293945" />
    </clipPath>
    <clipPath
       id="clipPath2582"
       clipPathUnits="userSpaceOnUse">
      <circle
         style="opacity:1;fill:#ffffff;fill-opacity:1;stroke:none;stroke-width:1.29999995;stroke-linecap:butt;stroke-linejoin:bevel;stroke-miterlimit:4;stroke-dasharray:none;stroke-opacity:0.87234042"
         id="circle2580"
         cx="94.063423"
         cy="187.42929"
         r="65.293945" />
    </clipPath>
    <clipPath
       clipPathUnits="userSpaceOnUse"
       id="clipPath4176">
      <circle
         style="opacity:1;fill:#ffffff;fill-opacity:1;stroke:none;stroke-width:1.29999995;stroke-linecap:butt;stroke-linejoin:bevel;stroke-miterlimit:4;stroke-dasharray:none;stroke-opacity:0.87234042"
         id="circle4178"
         cx="94.063423"
         cy="187.42929"
         r="65.293945" />
    </clipPath>
    <radialGradient
       inkscape:collect="always"
       xlink:href="#linearGradient1573"
       id="radialGradient1575"
       cx="74.513741"
       cy="234.20605"
       fx="74.513741"
       fy="234.20605"
       r="72.793999"
       gradientTransform="translate(0,1.718267e-4)"
       gradientUnits="userSpaceOnUse" />
  </defs>
  <sodipodi:namedview
     id="base"
     pagecolor="#ffffff"
     bordercolor="#666666"
     borderopacity="1.0"
     inkscape:pageopacity="0.0"
     inkscape:pageshadow="2"
     inkscape:zoom="0.86097527"
     inkscape:cx="82.782985"
     inkscape:cy="228.04997"
     inkscape:document-units="mm"
     inkscape:current-layer="layer1"
     showgrid="false"
     inkscape:showpageshadow="false"
     inkscape:pagecheckerboard="true"
     fit-margin-top="10"
     fit-margin-left="10"
     fit-margin-right="10"
     fit-margin-bottom="10"
     inkscape:window-width="1858"
     inkscape:window-height="1057"
     inkscape:window-x="54"
     inkscape:window-y="-8"
     inkscape:window-maximized="1"
     inkscape:object-paths="true"
     inkscape:snap-intersection-paths="true"
     inkscape:snap-smooth-nodes="true"
     inkscape:snap-midpoints="true"
     inkscape:object-nodes="true"
     showguides="true"
     showborder="true"
     units="px" />
  <metadata
     id="metadata2627">
    <rdf:RDF>
      <cc:Work
         rdf:about="">
        <dc:format>image/svg+xml</dc:format>
        <dc:type
           rdf:resource="http://purl.org/dc/dcmitype/StillImage" />
        <dc:title></dc:title>
      </cc:Work>
    </rdf:RDF>
  </metadata>
  <g
     inkscape:label="レイヤー 1"
     inkscape:groupmode="layer"
     id="layer1"
     transform="translate(3.2802582,-156.41211)">
    <ellipse
       style="display:inline;opacity:1;fill:url(#radialGradient1575);fill-opacity:1;stroke:none;stroke-width:1.44932461;stroke-linecap:butt;stroke-linejoin:bevel;stroke-miterlimit:4;stroke-dasharray:none;stroke-opacity:0.87234042"
       id="circle4000-3"
       cx="74.513741"
       cy="234.20605"
       rx="72.793999"
       ry="72.793945" />
    <circle
       style="display:inline;opacity:1;fill:#ffffff;fill-opacity:1;stroke:none;stroke-width:1.29999995;stroke-linecap:butt;stroke-linejoin:bevel;stroke-miterlimit:4;stroke-dasharray:none;stroke-opacity:0.87234042"
       id="circle4000"
       cx="72.013687"
       cy="231.70605"
       r="65.293945" />
    <g
       transform="translate(-22.04973,44.276758)"
       id="g4110"
       style="display:inline;fill:#aeaeae;fill-opacity:1"
       clip-path="url(#clipPath4176)">
      <g
         id="g4107"
         style="display:inline;fill:#aeaeae;fill-opacity:1;stroke:none;stroke-width:0.26458332px;stroke-linecap:butt;stroke-linejoin:miter;stroke-opacity:1">
        <path
           id="path4087"
           d="m 22.049736,171.78422 c 20.96714,4.45284 28.255596,8.91127 35.674631,16.3303 l 70.710673,70.71068 c -7.41903,-7.41903 -14.70749,-11.87746 -35.674626,-16.3303 z"
           style="fill:#aeaeae;fill-opacity:1"
           inkscape:connector-curvature="0" />
        <path
           id="path4089"
           d="m 57.724367,188.11452 c 1.878796,1.8788 3.765967,3.94746 5.88578,6.25398 l 70.710683,70.71068 c -2.11982,-2.30652 -4.00699,-4.37518 -5.88579,-6.25398 z"
           style="fill:#aeaeae;fill-opacity:1"
           inkscape:connector-curvature="0" />
        <path
           id="path4091"
           d="M 63.610147,194.3685 C 79.715848,177.94611 88.66183,177.74344 103.29236,171.50364 l 70.71068,70.71068 c -14.63053,6.2398 -23.57651,6.44247 -39.68221,22.86486 z"
           style="fill:#aeaeae;fill-opacity:1"
           inkscape:connector-curvature="0" />
        <path
           id="path4093"
           d="m 103.29236,171.50364 c 12.04675,-5.13784 28.03881,-15.55547 54.26303,-32.19266 l 70.71068,70.71068 c -26.22422,16.63719 -42.21628,27.05482 -54.26303,32.19266 z"
           style="fill:#aeaeae;fill-opacity:1"
           inkscape:connector-curvature="0" />
        <path
           id="path4095"
           d="m 157.55539,139.31098 c -29.71902,10.69799 -41.05954,10.18356 -53.71905,10.70223 l 70.71068,70.71068 c 12.65951,-0.51867 24.00003,-0.004 53.71905,-10.70223 z"
           style="fill:#aeaeae;fill-opacity:1"
           inkscape:connector-curvature="0" />
        <path
           id="path4097"
           d="m 103.83634,150.01321 c -7.554444,0.30951 -12.962374,1.81357 -18.937894,6.97752 l 70.710674,70.71068 c 5.97552,-5.16395 11.38345,-6.66801 18.9379,-6.97752 z"
           style="fill:#aeaeae;fill-opacity:1"
           inkscape:connector-curvature="0" />
        <path
           id="path4099"
           d="m 84.898446,156.99073 c -4.974201,4.29864 -12.662888,16.11013 -15.892479,23.12517 l 70.710683,70.71068 c 3.22959,-7.01504 10.91827,-18.82653 15.89247,-23.12517 z"
           style="fill:#aeaeae;fill-opacity:1"
           inkscape:connector-curvature="0" />
        <path
           id="path4101"
           d="m 69.005967,180.1159 c -2.835371,6.15875 -4.014887,2.70927 -7.351705,4.6543 l 70.710678,70.71068 c 3.33682,-1.94503 4.51633,1.50445 7.35171,-4.6543 z"
           style="fill:#aeaeae;fill-opacity:1"
           inkscape:connector-curvature="0" />
        <path
           id="path4103"
           d="m 61.654262,184.7702 c -4.239643,-1.52337 -12.325592,-8.60825 -17.821049,-9.75258 l 70.710677,70.71068 c 5.49546,1.14433 13.58141,8.22921 17.82105,9.75258 z"
           style="fill:#aeaeae;fill-opacity:1"
           inkscape:connector-curvature="0" />
        <path
           id="path4105"
           d="m 43.833213,175.01762 c -12.093132,-2.51817 -8.675813,-1.68746 -21.783477,-3.2334 l 70.710678,70.71068 c 13.107666,1.54594 9.690346,0.71523 21.783476,3.2334 z"
           style="fill:#aeaeae;fill-opacity:1"
           inkscape:connector-curvature="0" />
      </g>
      <path
         style="display:inline;fill:#aeaeae;fill-opacity:1;stroke:none;stroke-width:0.26458332px;stroke-linecap:butt;stroke-linejoin:miter;stroke-opacity:1"
         d="m 22.049736,171.78422 c 26.276859,5.58048 31.069832,11.16973 41.560411,22.58428 16.105701,-16.42239 25.051683,-16.62506 39.682213,-22.86486 12.04675,-5.13784 28.03881,-15.55547 54.26303,-32.19266 -29.71902,10.69799 -41.05954,10.18356 -53.71905,10.70223 -7.554444,0.30951 -12.962374,1.81357 -18.937894,6.97752 -4.974201,4.29864 -12.662888,16.11013 -15.892479,23.12517 -2.835371,6.15875 -4.014887,2.70927 -7.351705,4.6543 -4.239643,-1.52337 -12.325592,-8.60825 -17.821049,-9.75258 -12.093132,-2.51817 -8.675813,-1.68746 -21.783477,-3.2334 z"
         id="path4018"
         inkscape:connector-curvature="0"
         sodipodi:nodetypes="ccscssscsc" />
    </g>
    <g
       transform="translate(-22.04973,44.276758)"
       id="g4084"
       style="display:inline;fill:#aeaeae;fill-opacity:1"
       clip-path="url(#clipPath4180)">
      <g
         id="g4081"
         style="fill:#aeaeae;fill-opacity:1;stroke:none;stroke-width:0.26458332px;stroke-linecap:butt;stroke-linejoin:miter;stroke-opacity:1">
        <path
           id="path4045"
           d="m 43.402302,190.92558 c -3.740617,1.1614 -4.893569,5.19672 -2.298466,7.79182 l 70.710674,70.71068 c -2.5951,-2.5951 -1.44215,-6.63042 2.29847,-7.79182 z"
           style="fill:#aeaeae;fill-opacity:1"
           inkscape:connector-curvature="0" />
        <path
           id="path4047"
           d="m 41.103836,198.7174 c 0.671599,0.6716 1.594222,1.24674 2.787982,1.65065 l 70.710682,70.71068 c -1.19376,-0.40391 -2.11639,-0.97905 -2.78799,-1.65065 z"
           style="fill:#aeaeae;fill-opacity:1"
           inkscape:connector-curvature="0" />
        <path
           id="path4049"
           d="m 43.891818,200.36805 c 9.983163,3.00137 0,0 35.614145,10.07133 l 70.710677,70.71068 C 114.6025,271.07873 124.58566,274.0801 114.6025,271.07873 Z"
           style="fill:#aeaeae;fill-opacity:1"
           inkscape:connector-curvature="0" />
        <path
           id="path4051"
           d="m 79.505963,210.43938 c 13.140867,3.73114 24.901227,6.26991 27.353057,8.72174 l 70.71068,70.71068 c -2.45183,-2.45183 -14.21219,-4.9906 -27.35306,-8.72174 z"
           style="fill:#aeaeae;fill-opacity:1"
           inkscape:connector-curvature="0" />
        <path
           id="path4053"
           d="m 106.85902,219.16112 c 2.01379,2.01379 -2.25199,3.96893 -17.190094,6.47791 l 70.710674,70.71068 c 14.93811,-2.50899 19.20389,-4.46412 17.1901,-6.47791 z"
           style="fill:#aeaeae;fill-opacity:1"
           inkscape:connector-curvature="0" />
        <path
           id="path4055"
           d="m 89.668926,225.63903 c -51.716654,8.68626 -59.734738,10.02261 -59.734738,10.02261 l 70.710682,70.71068 c 0,0 8.01808,-1.33635 59.73473,-10.02261 z"
           style="fill:#aeaeae;fill-opacity:1"
           inkscape:connector-curvature="0" />
        <path
           id="path4057"
           d="m 29.934188,235.66164 c 0,0 0,0 0,0 l 70.710682,70.71068 c 0,0 0,0 0,0 z"
           style="fill:#aeaeae;fill-opacity:1"
           inkscape:connector-curvature="0" />
        <path
           id="path4059"
           d="m 29.934188,235.66164 -8.686261,14.16529 70.710678,70.71068 8.686265,-14.16529 z"
           style="fill:#aeaeae;fill-opacity:1"
           inkscape:connector-curvature="0" />
        <path
           id="path4061"
           d="M 21.247927,249.82693 2.9399647,292.59005 73.650643,363.30073 91.958605,320.53761 Z"
           style="fill:#aeaeae;fill-opacity:1"
           inkscape:connector-curvature="0" />
        <path
           id="path4063"
           d="M 2.9399647,292.59005 171.84272,288.38646 242.5534,359.09714 73.650643,363.30073 Z"
           style="fill:#aeaeae;fill-opacity:1"
           inkscape:connector-curvature="0" />
        <path
           id="path4065"
           d="m 171.84272,288.38646 -43.15244,-40.56406 70.71068,70.71068 43.15244,40.56406 z"
           style="fill:#aeaeae;fill-opacity:1"
           inkscape:connector-curvature="0" />
        <path
           id="path4067"
           d="m 128.69028,247.8224 10.82442,-11.89349 70.71068,70.71068 -10.82442,11.89349 z"
           style="fill:#aeaeae;fill-opacity:1"
           inkscape:connector-curvature="0" />
        <path
           id="path4069"
           d="m 139.5147,235.92891 c 0,0 11.74315,-11.89473 2.12987,-21.50801 l 70.71068,70.71068 c 9.61328,9.61328 -2.12987,21.50801 -2.12987,21.50801 z"
           style="fill:#aeaeae;fill-opacity:1"
           inkscape:connector-curvature="0" />
        <path
           id="path4071"
           d="m 141.64457,214.4209 c -5.53944,-5.53944 -18.17007,-10.32136 -44.224828,-11.63341 l 70.710678,70.71068 c 26.05476,1.31205 38.68538,6.09396 44.22483,11.63341 z"
           style="fill:#aeaeae;fill-opacity:1"
           inkscape:connector-curvature="0" />
        <path
           id="path4073"
           d="m 97.419742,202.78749 c -14.740083,-0.74227 -31.182815,-2.70061 -34.329589,-5.84738 l 70.710677,70.71068 c 3.14677,3.14677 19.58951,5.10511 34.32959,5.84738 z"
           style="fill:#aeaeae;fill-opacity:1"
           inkscape:connector-curvature="0" />
        <path
           id="path4075"
           d="m 63.090153,196.94011 c -0.845008,-0.84501 -0.731256,-1.77571 0.631682,-2.79158 l 70.710675,70.71068 c -1.36293,1.01586 -1.47669,1.94657 -0.63168,2.79158 z"
           style="fill:#aeaeae;fill-opacity:1"
           inkscape:connector-curvature="0" />
        <path
           id="path4077"
           d="m 63.721835,194.14853 2.451651,-9.92352 70.710674,70.71068 -2.45165,9.92352 z"
           style="fill:#aeaeae;fill-opacity:1"
           inkscape:connector-curvature="0" />
        <path
           id="path4079"
           d="m 66.173486,184.22501 -3.771138,0.80134 70.710682,70.71068 3.77113,-0.80134 z"
           style="fill:#aeaeae;fill-opacity:1"
           inkscape:connector-curvature="0" />
      </g>
      <path
         style="fill:#aeaeae;fill-opacity:1;stroke:none;stroke-width:0.26458332px;stroke-linecap:butt;stroke-linejoin:miter;stroke-opacity:1"
         d="m 43.402302,190.92558 c -4.708668,1.46197 -5.317017,7.47783 0.489516,9.44247 9.983163,3.00137 0,0 35.614145,10.07133 23.934017,6.79569 43.288497,9.63593 10.162963,15.19965 -51.716654,8.68626 -59.734738,10.02261 -59.734738,10.02261 L 21.247927,249.82693 2.9399647,292.59005 171.84272,288.38646 128.69028,247.8224 139.5147,235.92891 c 0,0 29.17582,-29.55241 -42.094958,-33.14142 -18.698257,-0.94159 -40.13637,-3.84005 -33.697907,-8.63896 l 2.451651,-9.92352 -3.771138,0.80134 z"
         id="path4022"
         inkscape:connector-curvature="0"
         sodipodi:nodetypes="sccsccccccssccs"
         inkscape:export-xdpi="356.79999"
         inkscape:export-ydpi="356.79999"
         inkscape:export-filename="C:\Users\sotaro\Desktop\Apps\Downloads\InkscapePortable\Data\settings\path3852.png"
         clip-path="url(#clipPath4014)" />
    </g>
    <path
       transform="translate(-22.04973,44.276758)"
       clip-path="url(#clipPath4014)"
       inkscape:export-filename="C:\Users\sotaro\Desktop\Apps\Downloads\InkscapePortable\Data\settings\path3852.png"
       inkscape:export-ydpi="356.79999"
       inkscape:export-xdpi="356.79999"
       sodipodi:nodetypes="sccsccccccssccs"
       inkscape:connector-curvature="0"
       id="path3852"
       d="m 43.402302,190.92558 c -4.708668,1.46197 -5.317017,7.47783 0.489516,9.44247 9.983163,3.00137 0,0 35.614145,10.07133 23.934017,6.79569 43.288497,9.63593 10.162963,15.19965 -51.716654,8.68626 -59.734738,10.02261 -59.734738,10.02261 L 21.247927,249.82693 2.9399647,292.59005 171.84272,288.38646 128.69028,247.8224 139.5147,235.92891 c 0,0 29.17582,-29.55241 -42.094958,-33.14142 -18.698257,-0.94159 -40.13637,-3.84005 -33.697907,-8.63896 l 2.451651,-9.92352 -3.771138,0.80134 z"
       style="display:inline;fill:#1565c0;fill-opacity:1;stroke:none;stroke-width:0.26458332px;stroke-linecap:butt;stroke-linejoin:miter;stroke-opacity:1" />
    <path
       sodipodi:nodetypes="ccscssscsc"
       inkscape:connector-curvature="0"
       id="path3850"
       d="m 0,216.06098 c 26.27686,5.58048 31.18153,10.94976 41.672104,22.36431 16.105701,-16.42239 24.939995,-16.40509 39.570525,-22.64489 12.046749,-5.13784 28.038811,-15.55547 54.263031,-32.19266 -29.71903,10.69799 -41.059542,10.18356 -53.71905,10.70223 -7.554445,0.30951 -12.962374,1.81357 -18.937896,6.97752 -4.974201,4.29864 -12.662887,16.11013 -15.892479,23.12517 -2.83537,6.15875 -4.014888,2.70927 -7.351704,4.6543 C 35.364887,227.52359 27.27894,220.43871 21.78348,219.29438 9.69035,216.77621 13.10767,217.60692 0,216.06098 Z"
       style="display:inline;fill:#26c6da;fill-opacity:1;stroke:none;stroke-width:0.26458332px;stroke-linecap:butt;stroke-linejoin:miter;stroke-opacity:1" />
  </g>
</svg>
