<?xml version="1.0" encoding="UTF-8" standalone="no"?>
<!-- Created with Inkscape (http://www.inkscape.org/) -->

<svg
   xmlns:dc="http://purl.org/dc/elements/1.1/"
   xmlns:cc="http://creativecommons.org/ns#"
   xmlns:rdf="http://www.w3.org/1999/02/22-rdf-syntax-ns#"
   xmlns:svg="http://www.w3.org/2000/svg"
   xmlns="http://www.w3.org/2000/svg"
   xmlns:sodipodi="http://sodipodi.sourceforge.net/DTD/sodipodi-0.dtd"
   xmlns:inkscape="http://www.inkscape.org/namespaces/inkscape"
   width="1280"
   height="270"
   viewBox="0 0 338.66667 71.437498"
   version="1.1"
   id="svg8"
   inkscape:version="0.92.4 (5da689c313, 2019-01-14)"
   sodipodi:docname="AlterV5-Logo-WHite.svg">
  <defs
     id="defs2" />
  <sodipodi:namedview
     id="base"
     pagecolor="#ffffff"
     bordercolor="#666666"
     borderopacity="1.0"
     inkscape:pageopacity="0.0"
     inkscape:pageshadow="2"
     inkscape:zoom="0.35"
     inkscape:cx="288.97559"
     inkscape:cy="297.12359"
     inkscape:document-units="mm"
     inkscape:current-layer="layer1"
     showgrid="false"
     inkscape:snap-global="false"
     inkscape:snap-intersection-paths="true"
     inkscape:window-width="1920"
     inkscape:window-height="1017"
     inkscape:window-x="-8"
     inkscape:window-y="-8"
     inkscape:window-maximized="1"
     fit-margin-top="30"
     fit-margin-left="30"
     fit-margin-right="30"
     fit-margin-bottom="30"
     inkscape:pagecheckerboard="true"
     units="px" />
  <metadata
     id="metadata5">
    <rdf:RDF>
      <cc:Work
         rdf:about="">
        <dc:format>image/svg+xml</dc:format>
        <dc:type
           rdf:resource="http://purl.org/dc/dcmitype/StillImage" />
        <dc:title></dc:title>
      </cc:Work>
    </rdf:RDF>
  </metadata>
  <g
     inkscape:label="レイヤー 1"
     inkscape:groupmode="layer"
     id="layer1"
     transform="translate(-45.541345,-93.335354)">
    <path
       style="display:inline;fill:#ffffff;fill-opacity:1;stroke:none;stroke-width:0.55348539px;stroke-linecap:butt;stroke-linejoin:miter;stroke-opacity:1"
       d="M 157.83203,29.134766 99.662109,129.89062 36,240 h 127.23242 l -0.12304,-0.21289 30.52929,-52.45313 85.81445,52.45313 z"
       id="path3906"
       inkscape:connector-curvature="0"
       transform="matrix(0.26458333,0,0,0.26458333,45.541345,93.335354)"
       inkscape:label="Logo" />
    <g
       aria-label="Alter"
       style="font-style:normal;font-weight:normal;font-size:66.47147369px;line-height:1.25;font-family:sans-serif;letter-spacing:0px;word-spacing:0px;fill:#ffffff;fill-opacity:1;stroke:none;stroke-width:1.66178679"
       id="text3889"
       inkscape:label="Alter"
       transform="matrix(0.7642245,0,0,0.7642245,9.4340006,20.357408)">
      <path
         d="m 175.78819,120.42468 22.26535,47.74391 h -5.12817 l -7.49752,-15.70907 h -20.57759 l -7.46506,15.70907 h -5.32291 l 22.55746,-47.74391 z m -0.58422,10.12651 -8.21156,17.29946 h 16.32575 z"
         style="font-style:normal;font-variant:normal;font-weight:normal;font-stretch:normal;font-size:66.47147369px;font-family:'Century Gothic';-inkscape-font-specification:'Century Gothic, Normal';font-variant-ligatures:normal;font-variant-caps:normal;font-variant-numeric:normal;font-feature-settings:normal;text-align:start;writing-mode:lr-tb;text-anchor:start;stroke-width:1.66178679;fill:#ffffff;fill-opacity:1"
         id="path3914"
         inkscape:connector-curvature="0" />
      <path
         d="m 204.05804,119.22378 h 4.54395 v 48.94481 h -4.54395 z"
         style="font-style:normal;font-variant:normal;font-weight:normal;font-stretch:normal;font-size:66.47147369px;font-family:'Century Gothic';-inkscape-font-specification:'Century Gothic, Normal';font-variant-ligatures:normal;font-variant-caps:normal;font-variant-numeric:normal;font-feature-settings:normal;text-align:start;writing-mode:lr-tb;text-anchor:start;stroke-width:1.66178679;fill:#ffffff;fill-opacity:1"
         id="path3916"
         inkscape:connector-curvature="0" />
      <path
         d="m 222.07156,119.74309 h 4.5764 v 13.11253 h 7.2054 v 3.89482 h -7.2054 v 31.41815 h -4.5764 v -31.41815 h -6.19925 v -3.89482 h 6.19925 z"
         style="font-style:normal;font-variant:normal;font-weight:normal;font-stretch:normal;font-size:66.47147369px;font-family:'Century Gothic';-inkscape-font-specification:'Century Gothic, Normal';font-variant-ligatures:normal;font-variant-caps:normal;font-variant-numeric:normal;font-feature-settings:normal;text-align:start;writing-mode:lr-tb;text-anchor:start;stroke-width:1.66178679;fill:#ffffff;fill-opacity:1"
         id="path3918"
         inkscape:connector-curvature="0" />
      <path
         d="m 270.56197,156.4517 3.8299,2.01232 q -1.88249,3.70007 -4.34921,5.97205 -2.46671,2.27197 -5.5501,3.47287 -3.0834,1.16844 -6.97821,1.16844 -8.6335,0 -13.50202,-5.64747 -4.86851,-5.67994 -4.86851,-12.82043 0,-6.71855 4.12201,-11.97655 5.22554,-6.6861 13.98887,-6.6861 9.02298,0 14.4108,6.84838 3.8299,4.83606 3.89482,12.07392 h -31.74273 q 0.12983,6.16679 3.92727,10.12652 3.79744,3.92727 9.38001,3.92727 2.69391,0 5.22554,-0.94125 2.56408,-0.94125 4.34921,-2.49917 1.78512,-1.55793 3.86235,-5.0308 z m 0,-9.50984 q -0.90879,-3.63515 -2.66145,-5.80976 -1.72021,-2.1746 -4.57641,-3.50533 -2.85619,-1.33073 -6.0045,-1.33073 -5.19309,0 -8.92561,3.34305 -2.72637,2.43426 -4.12201,7.30277 z"
         style="font-style:normal;font-variant:normal;font-weight:normal;font-stretch:normal;font-size:66.47147369px;font-family:'Century Gothic';-inkscape-font-specification:'Century Gothic, Normal';font-variant-ligatures:normal;font-variant-caps:normal;font-variant-numeric:normal;font-feature-settings:normal;text-align:start;writing-mode:lr-tb;text-anchor:start;stroke-width:1.66178679;fill:#ffffff;fill-opacity:1"
         id="path3920"
         inkscape:connector-curvature="0" />
      <path
         d="m 282.34378,132.85562 h 4.64132 v 5.16063 q 2.07723,-3.05094 4.38166,-4.54395 2.30443,-1.52547 4.80361,-1.52547 1.88249,0 4.02464,1.2009 l -2.36935,3.8299 q -1.4281,-0.61667 -2.4018,-0.61667 -2.27197,0 -4.38166,1.88249 -2.10969,1.85003 -3.21322,5.7773 -0.84388,3.01848 -0.84388,12.20375 v 11.94409 h -4.64132 z"
         style="font-style:normal;font-variant:normal;font-weight:normal;font-stretch:normal;font-size:66.47147369px;font-family:'Century Gothic';-inkscape-font-specification:'Century Gothic, Normal';font-variant-ligatures:normal;font-variant-caps:normal;font-variant-numeric:normal;font-feature-settings:normal;text-align:start;writing-mode:lr-tb;text-anchor:start;stroke-width:1.66178679;fill:#ffffff;fill-opacity:1"
         id="path3922"
         inkscape:connector-curvature="0" />
    </g>
    <g
       aria-label="Linux"
       style="font-style:normal;font-weight:normal;font-size:50.79912949px;line-height:1.25;font-family:sans-serif;letter-spacing:0px;word-spacing:0px;display:inline;fill:#ffffff;fill-opacity:1;stroke:none;stroke-width:1.26997817"
       id="text3893"
       inkscape:label="Linux">
      <path
         d="m 253.05472,111.59655 h 3.67104 v 32.96486 h 14.0144 v 3.52221 h -17.68544 z"
         style="font-style:normal;font-variant:normal;font-weight:normal;font-stretch:normal;font-size:50.79912949px;font-family:'Century Gothic';-inkscape-font-specification:'Century Gothic, Normal';font-variant-ligatures:normal;font-variant-caps:normal;font-variant-numeric:normal;font-feature-settings:normal;text-align:start;writing-mode:lr-tb;text-anchor:start;stroke-width:1.26997817;fill:#ffffff;fill-opacity:1"
         id="path824"
         inkscape:connector-curvature="0" />
      <path
         d="m 277.21408,109.98427 q 1.1906,0 2.03395,0.84335 0.84334,0.84334 0.84334,2.03395 0,1.1658 -0.84334,2.00914 -0.84335,0.84335 -2.03395,0.84335 -1.1658,0 -2.00915,-0.84335 -0.84334,-0.84334 -0.84334,-2.00914 0,-1.19061 0.84334,-2.03395 0.84335,-0.84335 2.00915,-0.84335 z m -1.7363,11.11231 h 3.4974 v 26.98704 h -3.4974 z"
         style="font-style:normal;font-variant:normal;font-weight:normal;font-stretch:normal;font-size:50.79912949px;font-family:'Century Gothic';-inkscape-font-specification:'Century Gothic, Normal';font-variant-ligatures:normal;font-variant-caps:normal;font-variant-numeric:normal;font-feature-settings:normal;text-align:start;writing-mode:lr-tb;text-anchor:start;stroke-width:1.26997817;fill:#ffffff;fill-opacity:1"
         id="path826"
         inkscape:connector-curvature="0" />
      <path
         d="m 286.21802,121.09658 h 3.4726 v 4.83683 q 2.08356,-2.77808 4.61359,-4.14231 2.53004,-1.38904 5.50655,-1.38904 3.02612,0 5.35772,1.53787 2.3564,1.53786 3.47259,4.14231 1.1162,2.60444 1.1162,8.11099 v 13.89039 h -3.4478 v -12.87341 q 0,-4.66321 -0.39686,-6.22587 -0.62011,-2.67886 -2.3316,-4.01829 -1.7115,-1.36424 -4.46477,-1.36424 -3.15014,0 -5.65537,2.08356 -2.48043,2.08356 -3.27417,5.15929 -0.49608,2.00914 -0.49608,7.34206 v 9.8969 h -3.4726 z"
         style="font-style:normal;font-variant:normal;font-weight:normal;font-stretch:normal;font-size:50.79912949px;font-family:'Century Gothic';-inkscape-font-specification:'Century Gothic, Normal';font-variant-ligatures:normal;font-variant-caps:normal;font-variant-numeric:normal;font-feature-settings:normal;text-align:start;writing-mode:lr-tb;text-anchor:start;stroke-width:1.26997817;fill:#ffffff;fill-opacity:1"
         id="path828"
         inkscape:connector-curvature="0" />
      <path
         d="m 316.72726,121.09658 h 3.4974 v 12.60057 q 0,4.61359 0.49609,6.34989 0.74413,2.48042 2.82769,3.91907 2.10836,1.43865 5.01046,1.43865 2.9021,0 4.91124,-1.38904 2.03395,-1.41384 2.80288,-3.69584 0.52089,-1.56266 0.52089,-6.62273 v -12.60057 h 3.54701 v 13.24548 q 0,5.58096 -1.31462,8.40864 -1.28983,2.82769 -3.91908,4.43996 -2.60445,1.58748 -6.54832,1.58748 -3.94388,0 -6.59794,-1.58748 -2.62925,-1.61227 -3.94387,-4.46476 -1.28983,-2.8773 -1.28983,-8.63189 z"
         style="font-style:normal;font-variant:normal;font-weight:normal;font-stretch:normal;font-size:50.79912949px;font-family:'Century Gothic';-inkscape-font-specification:'Century Gothic, Normal';font-variant-ligatures:normal;font-variant-caps:normal;font-variant-numeric:normal;font-feature-settings:normal;text-align:start;writing-mode:lr-tb;text-anchor:start;stroke-width:1.26997817;fill:#ffffff;fill-opacity:1"
         id="path830"
         inkscape:connector-curvature="0" />
      <path
         d="m 344.95452,121.09658 h 4.16711 l 7.14363,9.99612 7.14363,-9.99612 h 4.16712 l -9.22719,12.8238 10.39299,14.16324 h -4.21673 l -8.25982,-11.33555 -8.1358,11.33555 h -4.14231 l 10.21936,-14.16324 z"
         style="font-style:normal;font-variant:normal;font-weight:normal;font-stretch:normal;font-size:50.79912949px;font-family:'Century Gothic';-inkscape-font-specification:'Century Gothic, Normal';font-variant-ligatures:normal;font-variant-caps:normal;font-variant-numeric:normal;font-feature-settings:normal;text-align:start;writing-mode:lr-tb;text-anchor:start;stroke-width:1.26997817;fill:#ffffff;fill-opacity:1"
         id="path832"
         inkscape:connector-curvature="0" />
    </g>
  </g>
</svg>
