<?xml version="1.0" encoding="UTF-8" standalone="no"?>
<!-- Created with Inkscape (http://www.inkscape.org/) -->

<svg
   xmlns:dc="http://purl.org/dc/elements/1.1/"
   xmlns:cc="http://creativecommons.org/ns#"
   xmlns:rdf="http://www.w3.org/1999/02/22-rdf-syntax-ns#"
   xmlns:svg="http://www.w3.org/2000/svg"
   xmlns="http://www.w3.org/2000/svg"
   xmlns:sodipodi="http://sodipodi.sourceforge.net/DTD/sodipodi-0.dtd"
   xmlns:inkscape="http://www.inkscape.org/namespaces/inkscape"
   width="270"
   height="270"
   viewBox="0 0 71.437501 71.437498"
   version="1.1"
   id="svg8"
   inkscape:version="0.92.4 (5da689c313, 2019-01-14)"
   sodipodi:docname="AlterV5-Icon-White-Circle.svg">
  <defs
     id="defs2" />
  <sodipodi:namedview
     id="base"
     pagecolor="#ffffff"
     bordercolor="#666666"
     borderopacity="1.0"
     inkscape:pageopacity="0.0"
     inkscape:pageshadow="2"
     inkscape:zoom="0.49497475"
     inkscape:cx="-126.34999"
     inkscape:cy="204.34827"
     inkscape:document-units="mm"
     inkscape:current-layer="layer1"
     showgrid="false"
     inkscape:snap-global="true"
     inkscape:snap-intersection-paths="true"
     inkscape:window-width="1920"
     inkscape:window-height="1017"
     inkscape:window-x="-8"
     inkscape:window-y="-8"
     inkscape:window-maximized="1"
     fit-margin-top="30"
     fit-margin-left="30"
     fit-margin-right="30"
     fit-margin-bottom="30"
     inkscape:pagecheckerboard="true"
     units="px" />
  <metadata
     id="metadata5">
    <rdf:RDF>
      <cc:Work
         rdf:about="">
        <dc:format>image/svg+xml</dc:format>
        <dc:type
           rdf:resource="http://purl.org/dc/dcmitype/StillImage" />
        <dc:title></dc:title>
      </cc:Work>
    </rdf:RDF>
  </metadata>
  <g
     inkscape:label="レイヤー 1"
     inkscape:groupmode="layer"
     id="layer1"
     transform="translate(-45.541345,-93.335354)">
    <path
       style="fill:#ffffff;fill-opacity:1;stroke:none;stroke-width:14.28482914;stroke-miterlimit:4;stroke-dasharray:none;stroke-opacity:1"
       d="M 135,0 A 135.00095,135.00095 0 0 0 0,135 135.00095,135.00095 0 0 0 28.183594,217.42773 l 55.814453,-96.53515 v -0.002 L 135.0918,32.392578 241.83008,217.26562 A 135.00095,135.00095 0 0 0 270,135 135.00095,135.00095 0 0 0 135,0 Z m 31.54492,171.34766 -26.8164,46.07226 0.10742,0.1875 H 28.3125 A 135.00095,135.00095 0 0 0 135,270 135.00095,135.00095 0 0 0 241.7793,217.33398 Z"
       transform="matrix(0.26458333,0,0,0.26458333,45.541345,93.335354)"
       id="path816"
       inkscape:connector-curvature="0" />
  </g>
</svg>
