<svg xmlns="http://www.w3.org/2000/svg" viewBox="0 0 338.667 71.437" height="270" width="1280"><path d="M26.369 34.367L9.525 63.5h33.664l-.033-.056z" fill="#006eff"/><path d="M43.156 63.444l8.078-13.879-24.865-15.198z" fill="#005498"/><path d="M41.76 7.709L26.369 34.367l24.865 15.198 22.705 13.879z" fill="#009aff"/><g style="line-height:1.25" aria-label="Alter" font-weight="400" font-size="66.471" font-family="Century Gothic" letter-spacing="0" word-spacing="0" fill="#fff" stroke-width="1.662"><path style="-inkscape-font-specification:'Century Gothic, Normal';font-variant-ligatures:normal;font-variant-caps:normal;font-variant-numeric:normal;font-feature-settings:normal;text-align:start" d="M98.234 19.054L115.25 55.54h-3.919l-5.73-12.006H89.875L84.17 55.541h-4.068l17.24-36.487zm-.446 7.738l-6.276 13.221h12.477zM119.839 18.136h3.472V55.54h-3.472zM133.605 18.533h3.498v10.02h5.506v2.977h-5.506v24.01h-3.498V31.53h-4.737v-2.976h4.737zM170.663 46.586l2.927 1.538q-1.439 2.828-3.324 4.564-1.885 1.736-4.242 2.654-2.356.893-5.333.893-6.598 0-10.318-4.316-3.72-4.34-3.72-9.797 0-5.135 3.15-9.153 3.993-5.11 10.69-5.11 6.896 0 11.013 5.234 2.927 3.696 2.977 9.227h-24.259q.1 4.713 3.001 7.739 2.902 3.001 7.169 3.001 2.059 0 3.993-.72 1.96-.718 3.324-1.91 1.364-1.19 2.952-3.844zm0-7.267q-.695-2.778-2.034-4.44-1.315-1.662-3.498-2.68-2.182-1.016-4.588-1.016-3.97 0-6.822 2.555-2.083 1.86-3.15 5.58zM179.667 28.554h3.547v3.943q1.587-2.331 3.348-3.472 1.761-1.166 3.671-1.166 1.439 0 3.076.918l-1.81 2.927q-1.092-.472-1.836-.472-1.736 0-3.349 1.44-1.612 1.413-2.455 4.414-.645 2.307-.645 9.327v9.128h-3.547z"/></g><g style="line-height:1.25" aria-label="Linux" font-weight="400" font-size="50.799" font-family="Century Gothic" letter-spacing="0" word-spacing="0" fill="#fff" stroke-width="1.27"><path style="-inkscape-font-specification:'Century Gothic, Normal';font-variant-ligatures:normal;font-variant-caps:normal;font-variant-numeric:normal;font-feature-settings:normal;text-align:start" d="M207.513 18.261h3.671v32.965H225.2v3.522h-17.686zM231.673 16.649q1.19 0 2.034.843.843.844.843 2.034 0 1.166-.843 2.01-.844.843-2.034.843-1.166 0-2.01-.844-.843-.843-.843-2.009 0-1.19.844-2.034.843-.843 2.009-.843zm-1.737 11.112h3.498v26.987h-3.498zM240.677 27.761h3.472v4.837q2.084-2.778 4.614-4.142 2.53-1.39 5.506-1.39 3.027 0 5.358 1.539 2.357 1.537 3.473 4.142 1.116 2.604 1.116 8.11v13.891h-3.448V41.875q0-4.663-.397-6.226-.62-2.679-2.331-4.018-1.712-1.365-4.465-1.365-3.15 0-5.655 2.084-2.48 2.084-3.275 5.16-.496 2.008-.496 7.341v9.897h-3.472zM271.186 27.761h3.497v12.6q0 4.614.496 6.35.745 2.481 2.828 3.92 2.108 1.438 5.01 1.438 2.903 0 4.912-1.389 2.034-1.413 2.803-3.695.52-1.563.52-6.623v-12.6h3.548v13.245q0 5.58-1.315 8.408-1.29 2.828-3.92 4.44-2.604 1.588-6.547 1.588-3.944 0-6.598-1.588-2.63-1.612-3.944-4.464-1.29-2.878-1.29-8.632zM299.413 27.761h4.167l7.144 9.996 7.144-9.996h4.167l-9.228 12.824L323.2 54.748h-4.216l-8.26-11.335-8.136 11.335h-4.142l10.22-14.163z"/></g></svg>