<?xml version="1.0" encoding="UTF-8" standalone="no"?>
<svg
   xmlns:dc="http://purl.org/dc/elements/1.1/"
   xmlns:cc="http://creativecommons.org/ns#"
   xmlns:rdf="http://www.w3.org/1999/02/22-rdf-syntax-ns#"
   xmlns:svg="http://www.w3.org/2000/svg"
   xmlns="http://www.w3.org/2000/svg"
   xmlns:sodipodi="http://sodipodi.sourceforge.net/DTD/sodipodi-0.dtd"
   xmlns:inkscape="http://www.inkscape.org/namespaces/inkscape"
   viewBox="0 0 338.667 71.437"
   height="270"
   width="1280"
   version="1.1"
   id="svg915"
   sodipodi:docname="AlterV6-LogowithCopy-Colored-DarkText.svg"
   inkscape:version="0.92.4 (5da689c313, 2019-01-14)">
  <metadata
     id="metadata921">
    <rdf:RDF>
      <cc:Work
         rdf:about="">
        <dc:format>image/svg+xml</dc:format>
        <dc:type
           rdf:resource="http://purl.org/dc/dcmitype/StillImage" />
        <dc:title></dc:title>
      </cc:Work>
    </rdf:RDF>
  </metadata>
  <defs
     id="defs919" />
  <sodipodi:namedview
     pagecolor="#ffffff"
     bordercolor="#666666"
     borderopacity="1"
     objecttolerance="10"
     gridtolerance="10"
     guidetolerance="10"
     inkscape:pageopacity="0"
     inkscape:pageshadow="2"
     inkscape:window-width="1920"
     inkscape:window-height="1017"
     id="namedview917"
     showgrid="false"
     inkscape:zoom="0.41835938"
     inkscape:cx="330.43274"
     inkscape:cy="157.15732"
     inkscape:window-x="1072"
     inkscape:window-y="436"
     inkscape:window-maximized="1"
     inkscape:current-layer="svg915" />
  <path
     d="M26.369 34.367L9.525 63.5h33.664l-.033-.056z"
     fill="#006eff"
     id="path901" />
  <path
     d="M43.156 63.444l8.078-13.879-24.865-15.198z"
     fill="#005498"
     id="path903" />
  <path
     d="M41.76 7.709L26.369 34.367l24.865 15.198 22.705 13.879z"
     fill="#009aff"
     id="path905" />
  <g
     style="font-weight:400;font-size:66.47100067px;line-height:1.25;font-family:'Century Gothic';letter-spacing:0;word-spacing:0;fill:#464646;fill-opacity:1;stroke-width:1.66199994"
     aria-label="Alter"
     font-weight="400"
     font-size="66.471"
     letter-spacing="0"
     word-spacing="0"
     id="g909"
     transform="translate(0,-9.5250096)">
    <path
       style="-inkscape-font-specification:'Century Gothic, Normal';font-variant-ligatures:normal;font-variant-caps:normal;font-variant-numeric:normal;font-feature-settings:normal;text-align:start;fill:#464646;fill-opacity:1"
       d="M 98.234,19.054 115.25,55.54 h -3.919 l -5.73,-12.006 H 89.875 L 84.17,55.541 h -4.068 l 17.24,-36.487 z m -0.446,7.738 -6.276,13.221 h 12.477 z m 22.051,-8.656 h 3.472 V 55.54 h -3.472 z m 13.766,0.397 h 3.498 v 10.02 h 5.506 v 2.977 h -5.506 v 24.01 h -3.498 V 31.53 h -4.737 v -2.976 h 4.737 z m 37.058,28.053 2.927,1.538 q -1.439,2.828 -3.324,4.564 -1.885,1.736 -4.242,2.654 -2.356,0.893 -5.333,0.893 -6.598,0 -10.318,-4.316 -3.72,-4.34 -3.72,-9.797 0,-5.135 3.15,-9.153 3.993,-5.11 10.69,-5.11 6.896,0 11.013,5.234 2.927,3.696 2.977,9.227 h -24.259 q 0.1,4.713 3.001,7.739 2.902,3.001 7.169,3.001 2.059,0 3.993,-0.72 1.96,-0.718 3.324,-1.91 1.364,-1.19 2.952,-3.844 z m 0,-7.267 q -0.695,-2.778 -2.034,-4.44 -1.315,-1.662 -3.498,-2.68 -2.182,-1.016 -4.588,-1.016 -3.97,0 -6.822,2.555 -2.083,1.86 -3.15,5.58 z m 9.004,-10.765 h 3.547 v 3.943 q 1.587,-2.331 3.348,-3.472 1.761,-1.166 3.671,-1.166 1.439,0 3.076,0.918 l -1.81,2.927 q -1.092,-0.472 -1.836,-0.472 -1.736,0 -3.349,1.44 -1.612,1.413 -2.455,4.414 -0.645,2.307 -0.645,9.327 v 9.128 h -3.547 z"
       id="path907"
       inkscape:connector-curvature="0" />
  </g>
  <g
     style="font-weight:400;font-size:50.79899979px;line-height:1.25;font-family:'Century Gothic';letter-spacing:0;word-spacing:0;fill:#464646;fill-opacity:1;stroke-width:1.26999998"
     aria-label="Linux"
     font-weight="400"
     font-size="50.799"
     letter-spacing="0"
     word-spacing="0"
     id="g913"
     transform="translate(0,-9.5250096)">
    <path
       style="-inkscape-font-specification:'Century Gothic, Normal';font-variant-ligatures:normal;font-variant-caps:normal;font-variant-numeric:normal;font-feature-settings:normal;text-align:start;fill:#464646;fill-opacity:1"
       d="m 207.513,18.261 h 3.671 V 51.226 H 225.2 v 3.522 h -17.686 z m 24.16,-1.612 q 1.19,0 2.034,0.843 0.843,0.844 0.843,2.034 0,1.166 -0.843,2.01 -0.844,0.843 -2.034,0.843 -1.166,0 -2.01,-0.844 -0.843,-0.843 -0.843,-2.009 0,-1.19 0.844,-2.034 0.843,-0.843 2.009,-0.843 z m -1.737,11.112 h 3.498 v 26.987 h -3.498 z m 10.741,0 h 3.472 v 4.837 q 2.084,-2.778 4.614,-4.142 2.53,-1.39 5.506,-1.39 3.027,0 5.358,1.539 2.357,1.537 3.473,4.142 1.116,2.604 1.116,8.11 v 13.891 h -3.448 V 41.875 q 0,-4.663 -0.397,-6.226 -0.62,-2.679 -2.331,-4.018 -1.712,-1.365 -4.465,-1.365 -3.15,0 -5.655,2.084 -2.48,2.084 -3.275,5.16 -0.496,2.008 -0.496,7.341 v 9.897 h -3.472 z m 30.509,0 h 3.497 v 12.6 q 0,4.614 0.496,6.35 0.745,2.481 2.828,3.92 2.108,1.438 5.01,1.438 2.903,0 4.912,-1.389 2.034,-1.413 2.803,-3.695 0.52,-1.563 0.52,-6.623 v -12.6 h 3.548 v 13.245 q 0,5.58 -1.315,8.408 -1.29,2.828 -3.92,4.44 -2.604,1.588 -6.547,1.588 -3.944,0 -6.598,-1.588 -2.63,-1.612 -3.944,-4.464 -1.29,-2.878 -1.29,-8.632 z m 28.227,0 h 4.167 l 7.144,9.996 7.144,-9.996 h 4.167 l -9.228,12.824 10.393,14.163 h -4.216 l -8.26,-11.335 -8.136,11.335 h -4.142 l 10.22,-14.163 z"
       id="path911"
       inkscape:connector-curvature="0" />
  </g>
  <g
     aria-label="&gt;LIVE THE FOREFRONT"
     style="font-style:normal;font-weight:normal;font-size:13.69347382px;line-height:1.25;font-family:sans-serif;letter-spacing:0px;word-spacing:0px;fill:#464646;fill-opacity:1;stroke:none;stroke-width:0.34233689"
     id="text936">
    <path
       d="m 87.790435,58.24894 v -0.766835 l -5.176133,-4.340831 v 1.314573 l 4.053268,3.409675 -4.053268,3.409675 v 1.314574 z"
       style="font-style:normal;font-variant:normal;font-weight:normal;font-stretch:normal;font-family:'TeX Gyre Adventor';-inkscape-font-specification:'TeX Gyre Adventor';fill:#464646;fill-opacity:1;stroke-width:0.34233689"
       id="path938"
       inkscape:connector-curvature="0" />
    <path
       d="M 95.752762,61.288891 V 60.371428 H 91.562559 V 51.169414 H 90.549242 V 61.288891 Z"
       style="font-style:normal;font-variant:normal;font-weight:normal;font-stretch:normal;font-family:'TeX Gyre Adventor';-inkscape-font-specification:'TeX Gyre Adventor';fill:#464646;fill-opacity:1;stroke-width:0.34233689"
       id="path940"
       inkscape:connector-curvature="0" />
    <path
       d="M 97.901139,61.288891 V 51.169414 h -1.013317 v 10.119477 z"
       style="font-style:normal;font-variant:normal;font-weight:normal;font-stretch:normal;font-family:'TeX Gyre Adventor';-inkscape-font-specification:'TeX Gyre Adventor';fill:#464646;fill-opacity:1;stroke-width:0.34233689"
       id="path942"
       inkscape:connector-curvature="0" />
    <path
       d="m 108.42543,51.169414 h -1.09548 l -3.57399,8.859677 -3.56031,-8.859677 h -1.109168 l 4.162818,10.119477 h 0.98593 z"
       style="font-style:normal;font-variant:normal;font-weight:normal;font-stretch:normal;font-family:'TeX Gyre Adventor';-inkscape-font-specification:'TeX Gyre Adventor';fill:#464646;fill-opacity:1;stroke-width:0.34233689"
       id="path944"
       inkscape:connector-curvature="0" />
    <path
       d="m 115.12389,61.288891 v -0.917463 h -4.51884 V 56.63311 h 4.36821 v -0.917463 h -4.36821 v -3.628771 h 4.51884 v -0.917462 h -5.53216 v 10.119477 z"
       style="font-style:normal;font-variant:normal;font-weight:normal;font-stretch:normal;font-family:'TeX Gyre Adventor';-inkscape-font-specification:'TeX Gyre Adventor';fill:#464646;fill-opacity:1;stroke-width:0.34233689"
       id="path946"
       inkscape:connector-curvature="0" />
    <path
       d="m 125.41454,52.086876 v -0.917462 h -5.64171 v 0.917462 h 2.31419 v 9.202015 h 1.01332 v -9.202015 z"
       style="font-style:normal;font-variant:normal;font-weight:normal;font-stretch:normal;font-family:'TeX Gyre Adventor';-inkscape-font-specification:'TeX Gyre Adventor';fill:#464646;fill-opacity:1;stroke-width:0.34233689"
       id="path948"
       inkscape:connector-curvature="0" />
    <path
       d="M 133.81934,61.288891 V 51.169414 h -1.01332 v 4.450379 h -5.2446 v -4.450379 h -1.01332 v 10.119477 h 1.01332 v -4.751636 h 5.2446 v 4.751636 z"
       style="font-style:normal;font-variant:normal;font-weight:normal;font-stretch:normal;font-family:'TeX Gyre Adventor';-inkscape-font-specification:'TeX Gyre Adventor';fill:#464646;fill-opacity:1;stroke-width:0.34233689"
       id="path950"
       inkscape:connector-curvature="0" />
    <path
       d="m 141.44104,61.288891 v -0.917463 h -4.51885 V 56.63311 h 4.36822 v -0.917463 h -4.36822 v -3.628771 h 4.51885 v -0.917462 h -5.53216 v 10.119477 z"
       style="font-style:normal;font-variant:normal;font-weight:normal;font-stretch:normal;font-family:'TeX Gyre Adventor';-inkscape-font-specification:'TeX Gyre Adventor';fill:#464646;fill-opacity:1;stroke-width:0.34233689"
       id="path952"
       inkscape:connector-curvature="0" />
    <path
       d="m 152.16987,52.086876 v -0.917462 h -5.13505 v 10.119477 h 1.01332 v -4.628394 h 3.97111 v -0.917463 h -3.97111 v -3.656158 z"
       style="font-style:normal;font-variant:normal;font-weight:normal;font-stretch:normal;font-family:'TeX Gyre Adventor';-inkscape-font-specification:'TeX Gyre Adventor';fill:#464646;fill-opacity:1;stroke-width:0.34233689"
       id="path954"
       inkscape:connector-curvature="0" />
    <path
       d="m 163.92401,56.235999 c 0,-2.889323 -2.41005,-5.2446 -5.34046,-5.2446 -2.90301,0 -5.35415,2.36897 -5.35415,5.176133 0,2.944097 2.38267,5.299374 5.35415,5.299374 2.93041,0 5.34046,-2.368971 5.34046,-5.230907 z m -1.02701,0.01369 c 0,2.341584 -1.95817,4.286058 -4.31345,4.286058 -2.38266,0 -4.32713,-1.944474 -4.32713,-4.340831 0,-2.314197 1.98555,-4.272364 4.32713,-4.272364 2.35528,0 4.31345,1.958167 4.31345,4.327137 z"
       style="font-style:normal;font-variant:normal;font-weight:normal;font-stretch:normal;font-family:'TeX Gyre Adventor';-inkscape-font-specification:'TeX Gyre Adventor';fill:#464646;fill-opacity:1;stroke-width:0.34233689"
       id="path956"
       inkscape:connector-curvature="0" />
    <path
       d="m 172.42958,54.42846 c 0,-2.108795 -1.17763,-3.259046 -4.35452,-3.259046 h -2.50591 v 10.119477 h 1.01332 v -9.202015 h 1.42412 c 2.35528,0 3.39598,0.616207 3.39598,2.300504 0,1.821232 -0.95854,2.314197 -3.79309,2.314197 l 3.40968,4.587314 h 1.2598 l -2.83455,-3.779399 c 1.94447,-0.205402 2.98517,-1.287186 2.98517,-3.081032 z"
       style="font-style:normal;font-variant:normal;font-weight:normal;font-stretch:normal;font-family:'TeX Gyre Adventor';-inkscape-font-specification:'TeX Gyre Adventor';fill:#464646;fill-opacity:1;stroke-width:0.34233689"
       id="path958"
       inkscape:connector-curvature="0" />
    <path
       d="m 179.41903,61.288891 v -0.917463 h -4.51885 V 56.63311 h 4.36822 v -0.917463 h -4.36822 v -3.628771 h 4.51885 v -0.917462 h -5.53217 v 10.119477 z"
       style="font-style:normal;font-variant:normal;font-weight:normal;font-stretch:normal;font-family:'TeX Gyre Adventor';-inkscape-font-specification:'TeX Gyre Adventor';fill:#464646;fill-opacity:1;stroke-width:0.34233689"
       id="path960"
       inkscape:connector-curvature="0" />
    <path
       d="m 186.35007,52.086876 v -0.917462 h -5.13506 v 10.119477 h 1.01332 v -4.628394 h 3.97111 v -0.917463 h -3.97111 v -3.656158 z"
       style="font-style:normal;font-variant:normal;font-weight:normal;font-stretch:normal;font-family:'TeX Gyre Adventor';-inkscape-font-specification:'TeX Gyre Adventor';fill:#464646;fill-opacity:1;stroke-width:0.34233689"
       id="path962"
       inkscape:connector-curvature="0" />
    <path
       d="m 194.70823,54.42846 c 0,-2.108795 -1.17764,-3.259046 -4.35453,-3.259046 h -2.50591 v 10.119477 h 1.01332 v -9.202015 h 1.42412 c 2.35528,0 3.39598,0.616207 3.39598,2.300504 0,1.821232 -0.95854,2.314197 -3.79309,2.314197 l 3.40968,4.587314 h 1.2598 l -2.83455,-3.779399 c 1.94447,-0.205402 2.98518,-1.287186 2.98518,-3.081032 z"
       style="font-style:normal;font-variant:normal;font-weight:normal;font-stretch:normal;font-family:'TeX Gyre Adventor';-inkscape-font-specification:'TeX Gyre Adventor';fill:#464646;fill-opacity:1;stroke-width:0.34233689"
       id="path964"
       inkscape:connector-curvature="0" />
    <path
       d="m 206.42192,56.235999 c 0,-2.889323 -2.41005,-5.2446 -5.34046,-5.2446 -2.90301,0 -5.35415,2.36897 -5.35415,5.176133 0,2.944097 2.38267,5.299374 5.35415,5.299374 2.93041,0 5.34046,-2.368971 5.34046,-5.230907 z m -1.02701,0.01369 c 0,2.341584 -1.95817,4.286058 -4.31345,4.286058 -2.38266,0 -4.32713,-1.944474 -4.32713,-4.340831 0,-2.314197 1.98555,-4.272364 4.32713,-4.272364 2.35528,0 4.31345,1.958167 4.31345,4.327137 z"
       style="font-style:normal;font-variant:normal;font-weight:normal;font-stretch:normal;font-family:'TeX Gyre Adventor';-inkscape-font-specification:'TeX Gyre Adventor';fill:#464646;fill-opacity:1;stroke-width:0.34233689"
       id="path966"
       inkscape:connector-curvature="0" />
    <path
       d="M 216.11883,61.288891 V 51.169414 h -1.01332 v 8.394099 l -5.6691,-8.394099 h -1.36935 v 10.119477 h 1.01332 v -8.900758 l 6.02513,8.900758 z"
       style="font-style:normal;font-variant:normal;font-weight:normal;font-stretch:normal;font-family:'TeX Gyre Adventor';-inkscape-font-specification:'TeX Gyre Adventor';fill:#464646;fill-opacity:1;stroke-width:0.34233689"
       id="path968"
       inkscape:connector-curvature="0" />
    <path
       d="m 222.90031,52.086876 v -0.917462 h -5.64171 v 0.917462 h 2.31419 v 9.202015 h 1.01332 v -9.202015 z"
       style="font-style:normal;font-variant:normal;font-weight:normal;font-stretch:normal;font-family:'TeX Gyre Adventor';-inkscape-font-specification:'TeX Gyre Adventor';fill:#464646;fill-opacity:1;stroke-width:0.34233689"
       id="path970"
       inkscape:connector-curvature="0" />
  </g>
</svg>
